# xmcd
#
# Track frame offsets: 
#        150
#        25503
#        52599
#        76138
#        98997
#        129661
#        159434
#        184492
#        208037
#
# Disc length: 3277 seconds
#
# Revision: 0
# Processed by: cddbd v1.5.2PL0 Copyright (c) Steve Scherf et al.
# Submitted via: ExactAudioCopy v0.99pb5
#
DISCID=690ccb09
DTITLE=Drivhell - A Journey As A Life
DYEAR=2009
DGENRE=Progressive Rock
TTITLE0=Pictures On A Score
TTITLE1=My Convictions
TTITLE2=A Journey As A Life
TTITLE3=The Shining Stone
TTITLE4=Haze Of Memories
TTITLE5=The Uproar Of The World
TTITLE6=In A Sweet Trap
TTITLE7=Dried Branches
TTITLE8=Fluttering Hell
EXTD=
EXTT0=
EXTT1=
EXTT2=
EXTT3=
EXTT4=
EXTT5=
EXTT6=
EXTT7=
EXTT8=
PLAYORDER=
